<svg xmlns="http://www.w3.org/2000/svg" width="30.849" height="30.849" viewBox="0 0 30.849 30.849">
  <path id="icn-warning" d="M17.995,4.723,30.922,30.487H5.068L17.995,4.723Zm0-2.795a2.23,2.23,0,0,0-1.834,1.345L2.994,29.516c-1.009,1.793-.151,3.261,1.907,3.261H31.089c2.058,0,2.916-1.467,1.907-3.261h0L19.829,3.273a2.23,2.23,0,0,0-1.834-1.345Zm1.928,25.064a1.928,1.928,0,1,1-1.928-1.928A1.928,1.928,0,0,1,19.923,26.992Zm-1.928-3.856a1.928,1.928,0,0,1-1.928-1.928V15.424a1.928,1.928,0,1,1,3.856,0v5.784A1.928,1.928,0,0,1,17.995,23.136Z" transform="translate(-2.571 -1.928)" fill="#ffd800"/>
</svg>
