<svg xmlns="http://www.w3.org/2000/svg" width="22.645" height="30.099" viewBox="0 0 22.645 30.099">
  <g id="Group_521" data-name="Group 521" transform="translate(38.5 -106.796)">
    <path id="Path_687" data-name="Path 687" d="M-15.962,116.448a11.339,11.339,0,0,0-13.707-9.369A11.284,11.284,0,0,0-38.5,118.12a13.715,13.715,0,0,0,1.452,5.855,45.283,45.283,0,0,0,9.312,12.606c.426.432.7.413,1.151-.026,1.026-.991,1.985-2.048,2.916-3.126a39.737,39.737,0,0,0,6.383-9.489,13.558,13.558,0,0,0,1.43-5.8A13.157,13.157,0,0,0-15.962,116.448Zm-11.216,9.893a8.212,8.212,0,0,1-8.213-8.212,8.213,8.213,0,0,1,8.213-8.213,8.213,8.213,0,0,1,8.213,8.213A8.212,8.212,0,0,1-27.178,126.341Z" transform="translate(0 0)" fill="#f8f8f8"/>
    <path id="Path_688" data-name="Path 688" d="M29.151,160.507H27.642a.587.587,0,0,0-.588.588v2.538a.587.587,0,0,1-.587.588H24.377a.587.587,0,0,1-.588-.588v-2.538a.587.587,0,0,0-.588-.588H21.678a.587.587,0,0,0-.588.588v8.876a.587.587,0,0,0,.588.587H23.2a.587.587,0,0,0,.588-.587v-2.807a.587.587,0,0,1,.588-.587h2.091a.587.587,0,0,1,.587.587v2.807a.587.587,0,0,0,.588.587h1.509a.587.587,0,0,0,.588-.587v-8.876A.587.587,0,0,0,29.151,160.507Z" transform="translate(-52.592 -47.403)" fill="#f8f8f8"/>
  </g>
</svg>
